

<svg width="1360" height="210" viewBox="0 0 1360 210" fill="none" xmlns="http://www.w3.org/2000/svg">
<rect x="0.5" y="0.5" width="1359" height="209" rx="11.5" fill="#1A73E8"/>
<rect x="0.5" y="0.5" width="1359" height="209" rx="11.5" stroke="#1A73E8"/>
<g clip-path="url(#clip0_1_297)">
<path d="M1048.39 644.193C1222.8 644.193 1364.19 502.803 1364.19 328.389C1364.19 153.975 1222.8 12.584 1048.39 12.584C873.974 12.584 732.584 153.975 732.584 328.389C732.584 502.803 873.974 644.193 1048.39 644.193Z" fill="#237CF2"/>
<path d="M1050.4 587.871C1192.6 587.871 1307.87 472.597 1307.87 330.4C1307.87 188.203 1192.6 72.9287 1050.4 72.9287C908.203 72.9287 792.929 188.203 792.929 330.4C792.929 472.597 908.203 587.871 1050.4 587.871Z" fill="#3289FC"/>
<path d="M1048.39 515.457C1151.7 515.457 1235.46 431.704 1235.46 328.388C1235.46 225.073 1151.7 141.319 1048.39 141.319C945.074 141.319 861.32 225.073 861.32 328.388C861.32 431.704 945.074 515.457 1048.39 515.457Z" fill="#4696FF"/>
</g>
<rect x="49" y="65" width="80" height="80" rx="12" fill="#E2E8F0" fill-opacity="0.35"/>
<rect x="53" y="69" width="72" height="72" rx="12" fill="white"/>
<path d="M110 95.6667C112.577 95.6667 114.667 97.756 114.667 100.333V109.667C114.667 112.244 112.577 114.333 110 114.333H107.522C106.374 123.541 98.519 130.667 89 130.667V126C96.7319 126 103 119.732 103 112V98C103 90.2681 96.7319 84 89 84C81.268 84 75 90.2681 75 98V114.333H68C65.4226 114.333 63.3333 112.244 63.3333 109.667V100.333C63.3333 97.756 65.4226 95.6667 68 95.6667H70.4777C71.626 86.4587 79.4809 79.3334 89 79.3334C98.519 79.3334 106.374 86.4587 107.522 95.6667H110ZM79.1053 113.831L81.579 109.874C83.7304 111.221 86.2742 112 89 112C91.7258 112 94.2696 111.221 96.4209 109.874L98.8947 113.831C96.0261 115.628 92.6344 116.667 89 116.667C85.3656 116.667 81.9739 115.628 79.1053 113.831Z" fill="#1A73E8"/>
<defs>
<clipPath id="clip0_1_297">
<rect width="1360" height="210" fill="white"/>
</clipPath>
</defs>
</svg>
 